HIERARCHY
ROOT root
{
	OFFSET	0	13.1	24.9
	CHANNELS 6  Xposition Yposition Zposition Xrotation Yrotation Zrotation
	JOINT spine_1
	{
		OFFSET	0	9.99999	0
		CHANNELS 3  Xrotation Yrotation Zrotation
		JOINT spine_2
		{
			OFFSET	0	112	-10
			CHANNELS 3  Xrotation Yrotation Zrotation
			JOINT spine_3
			{
				OFFSET	0	206.5	19.3
				CHANNELS 3  Xrotation Yrotation Zrotation
				JOINT spine_4
				{
					OFFSET	0	110.4	14.6
					CHANNELS 3  Xrotation Yrotation Zrotation
					JOINT neck_1
					{
						OFFSET	0	71.8	-50.3
						CHANNELS 3  Xrotation Yrotation Zrotation
						JOINT neck_2
						{
							OFFSET	0	86.2	-25.8
							CHANNELS 3  Xrotation Yrotation Zrotation
							JOINT head_ee
							{
								OFFSET	0	179.8	-8.7
								CHANNELS 3  Xrotation Yrotation Zrotation
								End Site
								{
									OFFSET	1	0	0
								}
							}
						}
					}
					JOINT left_clavicle
					{
						OFFSET	-43.2	22.4	-70.8
						CHANNELS 3  Xrotation Yrotation Zrotation
						JOINT left_shoulder
						{
							OFFSET	-93.9	-5.79999	48.7
							CHANNELS 3  Xrotation Yrotation Zrotation
							JOINT left_elbow
							{
								OFFSET	-291.4	-30.8	15.2
								CHANNELS 3  Xrotation Yrotation Zrotation
								JOINT left_lowarm_twist
								{
									OFFSET	-110.7	-3.89999	13.6
									CHANNELS 3  Xrotation Yrotation Zrotation
									JOINT left_hand
									{
										OFFSET	-110.7	-3.89999	13.6
										CHANNELS 3  Xrotation Yrotation Zrotation
										JOINT left_ee
										{
											OFFSET	-80.8	-5.10001	12.1
											CHANNELS 3  Xrotation Yrotation Zrotation
											End Site
											{
												OFFSET	1	0	0
											}
										}
									}
								}
							}
						}
					}
					JOINT right_clavicle
					{
						OFFSET	43.2	22.4	-70.8
						CHANNELS 3  Xrotation Yrotation Zrotation
						JOINT right_shoulder
						{
							OFFSET	93.9	-5.79999	48.7
							CHANNELS 3  Xrotation Yrotation Zrotation
							JOINT right_elbow
							{
								OFFSET	291.4	-30.8	15.2
								CHANNELS 3  Xrotation Yrotation Zrotation
								JOINT right_lowarm_twist
								{
									OFFSET	110.7	-3.89999	13.6
									CHANNELS 3  Xrotation Yrotation Zrotation
									JOINT right_hand
									{
										OFFSET	110.7	-3.89999	13.6
										CHANNELS 3  Xrotation Yrotation Zrotation
										JOINT right_ee
										{
											OFFSET	80.8	-5.10001	12.1
											CHANNELS 3  Xrotation Yrotation Zrotation
											End Site
											{
												OFFSET	1	0	0
											}
										}
									}
								}
							}
						}
					}
				}
			}
		}
	}
	JOINT left_hip
	{
		OFFSET	-82.8	-127.5	0.300001
		CHANNELS 3  Xrotation Yrotation Zrotation
		JOINT left_knee
		{
			OFFSET	-28.2	-396.7	2.2
			CHANNELS 3  Xrotation Yrotation Zrotation
			JOINT left_ankle
			{
				OFFSET	-11.7	-411.3	35.4
				CHANNELS 3  Xrotation Yrotation Zrotation
				JOINT left_toes
				{
					OFFSET	0	-60	-88.6
					CHANNELS 3  Xrotation Yrotation Zrotation
					JOINT left_foot_ee
					{
						OFFSET	-22.5	-16.5	-42.2
						CHANNELS 3  Xrotation Yrotation Zrotation
						End Site
						{
							OFFSET	1	0	0
						}
					}
				}
			}
		}
	}
	JOINT right_hip
	{
		OFFSET	82.8	-127.5	0.300001
		CHANNELS 3  Xrotation Yrotation Zrotation
		JOINT right_knee
		{
			OFFSET	28.2	-396.7	2.2
			CHANNELS 3  Xrotation Yrotation Zrotation
			JOINT right_ankle
			{
				OFFSET	11.7	-411.3	35.4
				CHANNELS 3  Xrotation Yrotation Zrotation
				JOINT right_toes
				{
					OFFSET	0	-60	-88.6
					CHANNELS 3  Xrotation Yrotation Zrotation
					JOINT right_foot_ee
					{
						OFFSET	22.5	-16.5	-42.2
						CHANNELS 3  Xrotation Yrotation Zrotation
						End Site
						{
							OFFSET	1	0	0
						}
					}
				}
			}
		}
	}
}
MOTION
Frames: 16
Frame Time: 0.02
2502.06388594 768.491 -1472.47317999 8.88096796649 58.4718106805 -19.8692883784 -1.15778 1.20954 6.51963 -1.1345 0.793148 6.583 -1.023 -0.727358 6.59056 -1.08341 0.32027 6.6227 4.07177 16.608 -10.0812 6.65299 37.2624 -11.3275 -0.0 0.0 -0.0 0.96085 23.6632 4.0456 -41.447 -29.112 59.12 0.632835 -17.4057 0.0968704 -51.4549 -4.24324 4.75683 -8.06437 18.9305 -46.4947 -0.0 0.0 -0.0 14.0301 26.346 -28.0302 15.6027 31.8573 -68.8801 1.14171 29.4903 -0.300493 -3.07779 0.11856 -0.375064 4.22861 3.58542 -28.0538 0.0 0.0 0.0 -3.74151 24.1685 7.30176 -38.8339 -0.39425 5.83435 1.44791 6.60452 -0.211236 3.54364 -0.0 -0.0 -0.0 0.0 -0.0 -2.89771 27.0337 8.3084 -9.73403 -0.276767 -1.46644 14.1339 3.89078 2.01896 -8.86561 0.0 0.0 0.0 0.0 0.0 
2490.29925185 763.449 -1464.95950137 9.39579369602 61.3177215019 -20.7680831958 -1.07967 1.16947 6.59313 -1.05582 0.748511 6.65381 -0.948791 -0.778687 6.65037 -1.01034 0.278959 6.68981 4.01935 16.3294 -10.1556 6.54418 36.8514 -11.3829 -0.0 0.0 -0.0 0.714119 23.585 3.7023 -42.6423 -29.3399 59.5111 0.605934 -16.7079 0.0889798 -51.9118 -4.29744 4.77913 -7.69056 18.1492 -43.9784 -0.0 0.0 -0.0 13.9379 26.0659 -27.8496 16.5424 32.097 -68.8535 1.33514 33.4785 -0.401575 -1.18974 0.043436 -0.145722 4.11231 5.67643 -26.2303 0.0 0.0 0.0 -1.92002 25.0515 5.84702 -33.6169 -0.111375 5.0846 -1.71883 5.96837 0.25277 2.12572 -0.0 -0.0 -0.0 0.0 -0.0 -3.92393 27.7789 8.03844 -9.23644 -0.268694 -1.39051 14.2804 6.56701 2.06037 -8.74586 0.0 0.0 0.0 0.0 0.0 
2479.29051447 754.386 -1461.12396275 9.10830317436 63.8599985836 -20.351775152 -1.01875 1.12374 6.51539 -0.99543 0.707794 6.57334 -0.895095 -0.794096 6.56352 -0.955066 0.250117 6.60646 3.72357 16.2731 -10.1978 6.19423 36.8269 -11.3197 -0.0 0.0 -0.0 0.233644 23.2764 3.01495 -43.7029 -29.4214 59.4636 0.593083 -16.3727 0.0853211 -52.141 -4.32471 4.79017 -7.41148 17.6084 -42.1091 -0.0 0.0 -0.0 13.8456 26.3816 -27.5946 17.7703 32.2037 -68.9857 1.57407 37.9425 -0.541143 0.44041 -0.0153091 0.0541632 4.03822 7.71818 -24.7318 0.0 0.0 0.0 -0.552698 25.6494 4.74986 -29.9363 0.0464994 4.54198 -3.40809 6.03798 0.502975 1.3628 -0.0 -0.0 -0.0 0.0 -0.0 -5.08041 28.281 8.33225 -8.89749 -0.262817 -1.33883 14.2895 8.43367 2.07975 -8.66713 0.0 0.0 0.0 0.0 0.0 
2460.82956823 758.566 -1454.449001 9.39086214912 66.3349888777 -20.8876712326 -1.10947 1.15933 6.48535 -1.08639 0.745206 6.54562 -0.981572 -0.761035 6.5438 -1.04116 0.279675 6.5818 1.76192 17.8701 -7.57398 3.70806 37.7372 -7.4634 -0.0 0.0 -0.0 -0.0652098 23.3564 2.6134 -44.2326 -29.6196 60.0833 0.639699 -17.5829 0.0989338 -53.492 -4.48628 4.85296 -6.86093 17.1133 -38.0073 -0.0 0.0 -0.0 13.6838 26.3726 -27.2184 16.8104 32.4241 -68.1101 1.82185 42.0619 -0.700522 3.22042 -0.102283 0.398567 4.21453 12.1431 -23.8781 0.0 0.0 0.0 1.71233 26.0089 2.68287 -23.9487 0.2279 3.64138 -4.9975 6.43874 0.739634 -0.509596 0.0 0.0 -0.0 0.0 -0.0 -5.41709 28.7143 8.24627 -10.9095 -0.293216 -1.64605 13.1965 9.29624 1.93825 -8.5012 0.0 0.0 0.0 0.0 0.0 
2461.09080343 758.566 -1450.29809363 9.65939514977 67.0248779454 -21.180087397 -1.10947 1.15933 6.48535 -1.08639 0.745206 6.54562 -0.981572 -0.761035 6.5438 -1.04116 0.279675 6.5818 1.76192 17.8701 -7.57398 3.70806 37.7372 -7.4634 -0.0 0.0 -0.0 -0.0652098 23.3564 2.6134 -44.2326 -29.6196 60.0833 0.639699 -17.5829 0.0989338 -53.492 -4.48628 4.85296 -6.86093 17.1133 -38.0073 -0.0 0.0 -0.0 13.6838 26.3726 -27.2184 16.8104 32.4241 -68.1101 1.82185 42.0619 -0.700522 3.22042 -0.102283 0.398567 4.21453 12.1431 -23.8781 0.0 0.0 0.0 1.71233 26.0089 2.68287 -23.9487 0.2279 3.64138 -4.9975 6.43874 0.739634 -0.509596 0.0 0.0 -0.0 0.0 -0.0 -5.41709 28.7143 8.24627 -10.9095 -0.293216 -1.64605 13.1965 9.29624 1.93825 -8.5012 0.0 0.0 0.0 0.0 0.0 
2456.28590694 761.833 -1460.24113693 8.66726708788 66.8055181035 -19.792775406 -1.05086 1.05466 6.42696 -1.02813 0.644435 6.48073 -0.936607 -0.839898 6.4584 -0.994708 0.188389 6.50984 0.523442 19.3448 -4.96266 2.10562 38.4645 -3.95609 -0.0 0.0 -0.0 -0.185509 23.174 2.42757 -44.0512 -29.6434 60.0681 0.675557 -18.5029 0.110041 -54.7557 -4.6387 4.90823 -6.10607 16.2751 -32.87 -0.0 0.0 -0.0 13.5671 26.3269 -26.9524 16.129 32.1354 -67.2249 2.1 46.1253 -0.89419 6.6863 -0.18714 0.833105 4.44895 17.0369 -23.0123 0.0 0.0 0.0 3.11327 26.1618 0.903762 -18.3039 0.311969 2.77963 -1.08203 7.57609 0.158764 -2.35255 0.0 0.0 -0.0 0.0 -0.0 -4.86506 29.1637 7.90999 -12.5588 -0.310076 -1.89854 10.0209 8.05866 1.48118 -8.68381 0.0 0.0 0.0 0.0 0.0 
2440.17426477 757.174 -1464.35883211 8.5575459359 67.8278127737 -18.5591646687 -1.05585 1.11222 6.0848 -1.03555 0.723521 6.14294 -0.940836 -0.68598 6.14723 -0.993405 0.291555 6.17839 1.49967 19.388 -5.17155 3.28844 38.5261 -4.55551 -0.0 0.0 -0.0 -0.452849 23.1891 2.06153 -44.0253 -29.6522 60.1069 0.712699 -19.4456 0.122117 -55.7857 -4.76379 4.95077 -5.38856 15.2649 -28.39 -0.0 0.0 -0.0 13.6545 26.2796 -27.1616 15.6174 29.5815 -65.5679 2.31943 48.9587 -1.05613 9.3382 -0.234229 1.16855 4.60641 21.304 -21.7354 0.0 0.0 0.0 4.32274 25.7341 -0.0692769 -12.718 0.311318 1.92293 1.66312 8.55403 -0.242389 -2.9864 0.0 0.0 -0.0 0.0 -0.0 -5.0479 29.3314 7.45397 -14.4937 -0.320582 -2.19522 9.4844 7.15498 1.39857 -8.72947 0.0 0.0 0.0 0.0 0.0 
2440.22121524 757.174 -1462.70455266 8.65465329463 68.0875990484 -18.6639293292 -1.05585 1.11222 6.0848 -1.03555 0.723521 6.14294 -0.940836 -0.68598 6.14723 -0.993405 0.291555 6.17839 1.49967 19.388 -5.17155 3.28844 38.5261 -4.55551 -0.0 0.0 -0.0 -0.452849 23.1891 2.06153 -44.0253 -29.6522 60.1069 0.712699 -19.4456 0.122117 -55.7857 -4.76379 4.95077 -5.38856 15.2649 -28.39 -0.0 0.0 -0.0 13.6545 26.2796 -27.1616 15.6174 29.5815 -65.5679 2.31943 48.9587 -1.05613 9.3382 -0.234229 1.16855 4.60641 21.304 -21.7354 0.0 0.0 0.0 4.32274 25.7341 -0.0692769 -12.718 0.311318 1.92293 1.66312 8.55403 -0.242389 -2.9864 0.0 0.0 -0.0 0.0 -0.0 -5.0479 29.3314 7.45397 -14.4937 -0.320582 -2.19522 9.4844 7.15498 1.39857 -8.72947 0.0 0.0 0.0 0.0 0.0 
2428.31710213 756.859 -1463.06504883 8.31506538877 68.4369584566 -18.1412524645 -1.03764 1.12997 5.87139 -1.01879 0.754747 5.93111 -0.924589 -0.605537 5.94813 -0.973762 0.339734 5.96914 2.18363 19.4348 -5.28024 4.11497 38.5637 -4.9318 -0.0 0.0 -0.0 -0.842114 23.1229 1.51712 -44.1078 -29.5826 59.9874 0.738889 -20.1038 0.130978 -56.4826 -4.84883 4.97828 -4.86349 14.5564 -25.1803 -0.0 0.0 -0.0 13.7051 26.2253 -27.2863 15.237 27.765 -64.3677 2.52114 51.3073 -1.21099 11.1952 -0.257937 1.40456 4.74108 24.3488 -20.8754 0.0 0.0 0.0 4.53439 25.3833 -0.410164 -9.04121 0.265346 1.36074 3.50664 9.23448 -0.508651 -3.40056 0.0 0.0 -0.0 0.0 -0.0 -4.55174 29.3555 6.7932 -15.4832 -0.322081 -2.34702 9.0965 6.50546 1.33929 -8.79381 0.0 0.0 0.0 0.0 0.0 
2333.48116488 763.377 -1562.18426339 5.17733360969 35.2805637554 -7.98471509793 -1.42028 0.745147 4.22396 -1.41048 0.475106 4.26272 -1.36588 -0.533557 4.25581 -1.39111 0.144625 4.28663 -3.01959 17.9564 -4.52888 -2.24687 36.1791 -2.28284 -0.0 0.0 -0.0 1.26343 23.4806 4.44528 -30.9915 -31.8034 53.6279 0.757168 -20.56 0.13733 -59.118 -5.17327 5.07288 0.864528 4.19043 7.47299 -0.0 0.0 -0.0 11.6142 26.785 -22.4126 1.78784 29.6551 -62.7615 2.04708 45.3947 -0.856277 -2.16751 0.081396 -0.264797 4.28065 3.92592 -28.2996 0.0 0.0 0.0 -0.523297 11.3835 3.14441 -8.95393 0.263817 1.34743 0.600099 28.9841 -0.0936787 10.5803 -0.0 -0.0 -0.0 0.0 -0.0 -4.06245 33.4652 8.30219 -17.6374 -0.31628 -2.67747 23.9593 -6.19542 3.20934 -8.17307 0.0 0.0 0.0 0.0 0.0 
2333.52072472 763.377 -1562.39316625 5.17569978276 35.2550621752 -7.98188546583 -1.42028 0.745147 4.22396 -1.41048 0.475106 4.26272 -1.36588 -0.533557 4.25581 -1.39111 0.144625 4.28663 -3.01959 17.9564 -4.52888 -2.24687 36.1791 -2.28284 -0.0 0.0 -0.0 1.26343 23.4806 4.44528 -30.9915 -31.8034 53.6279 0.757168 -20.56 0.13733 -59.118 -5.17327 5.07288 0.864528 4.19043 7.47299 -0.0 0.0 -0.0 11.6142 26.785 -22.4126 1.78784 29.6551 -62.7615 2.04708 45.3947 -0.856277 -2.16751 0.081396 -0.264797 4.28065 3.92592 -28.2996 0.0 0.0 0.0 -0.523297 11.3835 3.14441 -8.95393 0.263817 1.34743 0.600099 28.9841 -0.0936787 10.5803 -0.0 -0.0 -0.0 0.0 -0.0 -4.06245 33.4652 8.30219 -17.6374 -0.31628 -2.67747 23.9593 -6.19542 3.20934 -8.17307 0.0 0.0 0.0 0.0 0.0 
2334.28663968 759.743 -1584.59587471 4.41172776674 32.1047896141 -7.12362054851 -1.44886 0.662341 4.11362 -1.43953 0.399469 4.14735 -1.40193 -0.582894 4.12561 -1.42567 0.0753979 4.16583 -4.00801 18.7005 -2.68797 -3.472 36.3021 0.119178 -0.0 0.0 -0.0 1.15302 23.3341 4.28298 -29.1055 -31.8556 52.1724 0.852486 -22.894 0.172622 -59.1866 -5.18177 5.07514 0.90924 4.96807 8.07772 -0.0 0.0 -0.0 11.4996 26.8264 -22.1479 0.0361087 29.9697 -62.6051 1.95511 44.0786 -0.791539 -3.1011 0.119534 -0.377879 3.91762 0.51708 -27.0085 0.0 0.0 0.0 -0.812071 10.103 3.55722 -7.54036 0.236228 1.13228 1.35863 28.3685 -0.210894 10.7646 -0.0 -0.0 -0.0 0.0 -0.0 -3.93507 33.5137 8.53067 -17.9779 -0.314226 -2.72967 22.6659 -6.13714 3.0559 -7.74066 0.0 0.0 0.0 0.0 0.0 
2333.78550814 766.716 -1606.13389703 4.19764026072 29.2948668169 -6.91356711888 -1.53708 0.605491 4.02342 -1.52814 0.348459 4.05373 -1.49508 -0.617182 4.02165 -1.51764 0.0251615 4.06857 -4.72191 19.2393 -1.40184 -4.33674 36.4593 1.79279 -0.0 0.0 -0.0 1.07734 23.035 4.15571 -27.3788 -32.1094 50.648 0.95388 -25.2914 0.214021 -59.2331 -5.18753 5.07666 0.91095 5.60842 8.3407 -0.0 0.0 -0.0 11.2853 26.9153 -21.6524 -1.21712 30.1856 -62.4976 1.82681 42.1395 -0.703851 -3.84552 0.151265 -0.4676 3.65867 -2.07214 -26.107 0.0 0.0 0.0 -0.704976 8.36614 3.66641 -6.24613 0.206317 0.935921 1.8422 27.5561 -0.284201 10.8802 -0.0 -0.0 -0.0 0.0 -0.0 -3.78433 33.5712 9.13812 -18.9401 -0.306745 -2.87711 21.7897 -6.07017 2.95043 -7.43699 0.0 0.0 0.0 0.0 0.0 
2331.65975963 766.716 -1598.38772145 4.23751251276 30.2401783258 -6.99387393871 -1.53708 0.605491 4.02342 -1.52814 0.348459 4.05373 -1.49508 -0.617182 4.02165 -1.51764 0.0251615 4.06857 -4.72191 19.2393 -1.40184 -4.33674 36.4593 1.79279 -0.0 0.0 -0.0 1.07734 23.035 4.15571 -27.3788 -32.1094 50.648 0.95388 -25.2914 0.214021 -59.2331 -5.18753 5.07666 0.91095 5.60842 8.3407 -0.0 0.0 -0.0 11.2853 26.9153 -21.6524 -1.21712 30.1856 -62.4976 1.82681 42.1395 -0.703851 -3.84552 0.151265 -0.4676 3.65867 -2.07214 -26.107 0.0 0.0 0.0 -0.704976 8.36614 3.66641 -6.24613 0.206317 0.935921 1.8422 27.5561 -0.284201 10.8802 -0.0 -0.0 -0.0 0.0 -0.0 -3.78433 33.5712 9.13812 -18.9401 -0.306745 -2.87711 21.7897 -6.07017 2.95043 -7.43699 0.0 0.0 0.0 0.0 0.0 
2328.61225583 762.352 -1657.91170384 4.57671840532 24.7912993042 -6.79012729958 -1.70438 0.430742 3.66799 -1.69692 0.196628 3.68793 -1.67724 -0.690158 3.62818 -1.69559 -0.1089 3.69155 -3.93747 21.2337 1.19998 -3.4161 38.0591 4.50835 -0.0 0.0 -0.0 0.485753 24.2594 3.45418 -19.6775 -32.9122 44.8934 1.27127 -32.1993 0.366939 -61.5046 -5.47044 5.14555 0.262998 8.12801 5.08699 -0.0 0.0 -0.0 10.627 27.0364 -20.1547 -6.42917 29.7507 -62.7987 1.47272 36.1101 -0.480105 -3.98296 0.157251 -0.484121 3.14947 -6.70855 -24.0948 0.0 0.0 0.0 -3.24733 6.07875 5.54007 -4.3776 0.155323 0.653712 0.305096 26.1681 -0.0468497 9.53637 -0.0 -0.0 -0.0 0.0 -0.0 -4.97786 33.8112 11.431 -21.8183 -0.269604 -3.31714 24.6595 -5.22376 3.29222 -6.48491 0.0 0.0 0.0 0.0 0.0 
2322.12477272 762.352 -1640.31621918 4.65940210189 26.9040426807 -6.97974511977 -1.70438 0.430742 3.66799 -1.69692 0.196628 3.68793 -1.67724 -0.690158 3.62818 -1.69559 -0.1089 3.69155 -3.93747 21.2337 1.19998 -3.4161 38.0591 4.50835 -0.0 0.0 -0.0 0.485753 24.2594 3.45418 -19.6775 -32.9122 44.8934 1.27127 -32.1993 0.366939 -61.5046 -5.47044 5.14555 0.262998 8.12801 5.08699 -0.0 0.0 -0.0 10.627 27.0364 -20.1547 -6.42917 29.7507 -62.7987 1.47272 36.1101 -0.480105 -3.98296 0.157251 -0.484121 3.14947 -6.70855 -24.0948 0.0 0.0 0.0 -3.24733 6.07875 5.54007 -4.3776 0.155323 0.653712 0.305096 26.1681 -0.0468497 9.53637 -0.0 -0.0 -0.0 0.0 -0.0 -4.97786 33.8112 11.431 -21.8183 -0.269604 -3.31714 24.6595 -5.22376 3.29222 -6.48491 0.0 0.0 0.0 0.0 0.0 
